<?xml version="1.0" encoding="UTF-8" standalone="no"?>
<!DOCTYPE svg PUBLIC "-//W3C//DTD SVG 1.1//EN" "http://www.w3.org/Graphics/SVG/1.1/DTD/svg11.dtd"
[
<!ATTLIST g
  xmlns:vectornator CDATA #FIXED "http://vectornator.io"
  vectornator:layerName CDATA #IMPLIED >
<!ATTLIST g
  xmlns:vectornator CDATA #FIXED "http://vectornator.io"
  vectornator:mask CDATA #IMPLIED >
<!ATTLIST text
  xmlns:vectornator CDATA #FIXED "http://vectornator.io"
  vectornator:width CDATA #IMPLIED >
<!ATTLIST text
  xmlns:vectornator CDATA #FIXED "http://vectornator.io"
  vectornator:text CDATA #IMPLIED >

<!ATTLIST path
  xmlns:vectornator CDATA #FIXED "http://vectornator.io"
  vectornator:blendMode CDATA #IMPLIED >
<!ATTLIST path
  xmlns:vectornator CDATA #FIXED "http://vectornator.io"
  vectornator:shadowColor CDATA #IMPLIED >
<!ATTLIST path
  xmlns:vectornator CDATA #FIXED "http://vectornator.io"
  vectornator:shadowOpacity CDATA #IMPLIED >
<!ATTLIST path
  xmlns:vectornator CDATA #FIXED "http://vectornator.io"
  vectornator:shadowRadius CDATA #IMPLIED >
<!ATTLIST path
  xmlns:vectornator CDATA #FIXED "http://vectornator.io"
  vectornator:shadowOffset CDATA #IMPLIED >
<!ATTLIST path
  xmlns:vectornator CDATA #FIXED "http://vectornator.io"
  vectornator:shadowAngle CDATA #IMPLIED >

<!ATTLIST image
  xmlns:vectornator CDATA #FIXED "http://vectornator.io"
  vectornator:blendMode CDATA #IMPLIED >
<!ATTLIST image
  xmlns:vectornator CDATA #FIXED "http://vectornator.io"
  vectornator:shadowColor CDATA #IMPLIED >
<!ATTLIST image
  xmlns:vectornator CDATA #FIXED "http://vectornator.io"
  vectornator:shadowOpacity CDATA #IMPLIED >
<!ATTLIST image
  xmlns:vectornator CDATA #FIXED "http://vectornator.io"
  vectornator:shadowRadius CDATA #IMPLIED >
<!ATTLIST image
  xmlns:vectornator CDATA #FIXED "http://vectornator.io"
  vectornator:shadowOffset CDATA #IMPLIED >
<!ATTLIST image
  xmlns:vectornator CDATA #FIXED "http://vectornator.io"
  vectornator:shadowAngle CDATA #IMPLIED >

<!ATTLIST g
  xmlns:vectornator CDATA #FIXED "http://vectornator.io"
  vectornator:blendMode CDATA #IMPLIED >
<!ATTLIST g
  xmlns:vectornator CDATA #FIXED "http://vectornator.io"
  vectornator:shadowColor CDATA #IMPLIED >
<!ATTLIST g
  xmlns:vectornator CDATA #FIXED "http://vectornator.io"
  vectornator:shadowOpacity CDATA #IMPLIED >
<!ATTLIST g
  xmlns:vectornator CDATA #FIXED "http://vectornator.io"
  vectornator:shadowRadius CDATA #IMPLIED >
<!ATTLIST g
  xmlns:vectornator CDATA #FIXED "http://vectornator.io"
  vectornator:shadowOffset CDATA #IMPLIED >
<!ATTLIST g
  xmlns:vectornator CDATA #FIXED "http://vectornator.io"
  vectornator:shadowAngle CDATA #IMPLIED >

<!ENTITY % SVG.filter.extra.content  "| feDropShadow" >
<!ELEMENT feDropShadow EMPTY>
<!ATTLIST feDropShadow
  xmlns:svg CDATA #FIXED "http://www.w3.org/Graphics/SVG/1.1/DTD/svg11.dtd"
  dx CDATA #IMPLIED>
<!ATTLIST feDropShadow
  xmlns:svg CDATA #FIXED "http://www.w3.org/Graphics/SVG/1.1/DTD/svg11.dtd"
  dy CDATA #IMPLIED>
<!ATTLIST feDropShadow
  xmlns:svg CDATA #FIXED "http://www.w3.org/Graphics/SVG/1.1/DTD/svg11.dtd"
  stdDeviation CDATA #IMPLIED>
<!ATTLIST feDropShadow
  xmlns:svg CDATA #FIXED "http://www.w3.org/Graphics/SVG/1.1/DTD/svg11.dtd"
  flood-opacity CDATA #IMPLIED>
<!ATTLIST feDropShadow
  xmlns:svg CDATA #FIXED "http://www.w3.org/Graphics/SVG/1.1/DTD/svg11.dtd"
  in CDATA #IMPLIED>
<!ATTLIST feDropShadow
  xmlns:svg CDATA #FIXED "http://www.w3.org/Graphics/SVG/1.1/DTD/svg11.dtd"
  result CDATA #IMPLIED>
<!ATTLIST feDropShadow
  xmlns:svg CDATA #FIXED "http://www.w3.org/Graphics/SVG/1.1/DTD/svg11.dtd"
  flood-color CDATA #IMPLIED>
]
>
<!-- Created with Vectornator (http://vectornator.io/) -->
<svg height="100%" stroke-miterlimit="10" style="fill-rule:nonzero;clip-rule:evenodd;stroke-linecap:round;stroke-linejoin:round;" version="1.1" viewBox="0 0 300 300" width="100%" xml:space="preserve" xmlns="http://www.w3.org/2000/svg" xmlns:vectornator="http://vectornator.io" xmlns:xlink="http://www.w3.org/1999/xlink">
<defs>
<clipPath id="TextBounds">
<rect height="66.5376" width="89.9556" x="66.116" y="235.319"/>
</clipPath>
<clipPath id="TextBounds_2">
<rect height="65.8488" width="94.8641" x="147.02" y="235.319"/>
</clipPath>
<linearGradient gradientTransform="matrix(0.427777 0 0 0.427777 3.47448 9.65888)" gradientUnits="userSpaceOnUse" id="LinearGradient" x1="200.808" x2="350.684" y1="171.366" y2="171.366">
<stop offset="0" stop-color="#e7d05d"/>
<stop offset="0.47314" stop-color="#ddd06b"/>
<stop offset="1" stop-color="#8ed0e1"/>
</linearGradient>
<linearGradient gradientTransform="matrix(0.592963 0 0 0.592963 -24.4663 7.54028)" gradientUnits="userSpaceOnUse" id="LinearGradient_2" x1="200.808" x2="350.684" y1="171.366" y2="171.366">
<stop offset="0.283058" stop-color="#e7d05d"/>
<stop offset="1" stop-color="#8ed0e1"/>
</linearGradient>
<linearGradient gradientTransform="matrix(0.794881 0 0 0.794881 -60.3415 11.3458)" gradientUnits="userSpaceOnUse" id="LinearGradient_3" x1="200.808" x2="350.684" y1="171.366" y2="171.366">
<stop offset="0.365702" stop-color="#e7d05d"/>
<stop offset="1" stop-color="#8ed0e1"/>
</linearGradient>
</defs>
<g id="レイヤー-1" vectornator:layerName="レイヤー 1">
<g opacity="1">
<path clip-path="url(#TextBounds)" d="M107.51 245.751C107.83 244.471 108.086 243.447 108.598 241.271C111.222 240.567 111.606 240.375 111.606 239.799C111.606 239.095 111.158 239.031 104.054 237.815C103.862 240.887 103.67 242.487 102.902 245.751L88.9498 245.751C86.0698 245.751 85.0458 245.687 82.6778 245.175L83.1258 247.543C84.9178 247.351 86.6458 247.223 88.1818 247.223L102.518 247.223C101.75 250.231 101.238 251.767 100.278 254.199L90.4218 254.199C87.6698 254.199 86.7738 254.135 84.8538 253.751L85.2378 255.927C86.9658 255.735 87.7338 255.671 89.5258 255.671L99.6378 255.671C98.3578 258.487 97.3338 260.471 95.6698 263.031L84.8538 263.031C81.3978 263.031 80.6938 262.967 78.4538 262.519L78.8378 264.823C80.3738 264.567 81.2698 264.503 83.7658 264.503L94.7098 264.503C90.0378 271.223 84.9178 276.279 77.5578 281.591L78.0698 282.487C84.9178 279.031 88.5658 276.343 93.4938 271.223C93.6218 275.895 93.6218 275.895 93.6218 278.327C93.6218 281.783 93.5578 285.751 93.3018 296.055C93.3018 296.503 93.4938 296.695 94.0698 296.695C95.0938 296.695 96.8218 296.503 97.2058 296.375C97.5898 296.247 97.7178 295.991 97.7818 295.479L97.7818 293.495L117.814 293.495L117.814 295.863C117.814 296.439 118.006 296.567 118.582 296.567C119.798 296.567 121.462 296.439 121.974 296.247C122.358 296.119 122.486 295.991 122.486 295.479C122.166 290.615 121.974 283.063 121.974 274.871C122.742 274.167 122.87 274.039 122.87 273.783C122.87 273.655 122.742 273.463 122.55 273.271C120.95 271.863 120.438 271.479 118.774 270.135C118.07 270.967 118.07 270.967 117.366 271.799L98.2938 271.799C96.5658 270.775 96.2458 270.583 94.7738 269.751C96.4378 267.895 97.6538 266.359 98.9338 264.503L116.406 264.503C117.686 266.359 118.838 267.767 120.31 269.431C124.79 274.487 127.862 276.983 133.302 279.927C135.286 276.919 135.798 276.599 138.422 276.279L138.486 275.063C132.278 273.655 128.758 272.055 123.83 268.471C121.974 267.191 120.822 266.167 119.222 264.503L136.95 264.503C137.27 264.503 137.526 264.375 137.526 264.183C137.526 264.055 137.398 263.863 137.27 263.671C134.71 261.431 133.942 260.727 131.254 258.615C129.718 260.407 129.206 261.047 127.542 263.031L117.878 263.031C115.894 260.663 115.19 259.575 113.206 255.671L130.038 255.671C130.294 255.671 130.614 255.479 130.614 255.351C130.614 255.223 130.486 255.095 130.358 254.903C127.798 252.791 127.03 252.151 124.47 250.103C122.998 251.831 122.55 252.407 121.078 254.199L104.63 254.199C105.718 251.703 106.358 249.911 107.126 247.223L132.47 247.223C132.918 247.223 133.11 247.159 133.11 246.903C133.11 246.839 133.046 246.647 132.918 246.455C130.294 244.279 129.462 243.575 126.838 241.463C125.238 243.191 124.79 243.767 123.19 245.751L107.51 245.751ZM117.814 281.335L97.7818 281.335L97.7818 273.271L117.814 273.271L117.814 281.335ZM117.814 282.807L117.814 292.023L97.7818 292.023L97.7818 282.807L117.814 282.807ZM111.862 255.671C113.398 259.575 113.974 260.727 115.382 263.031L99.9578 263.031C101.622 260.407 102.646 258.551 103.99 255.671L111.862 255.671Z" fill="#ffffff" fill-rule="evenodd" opacity="1" stroke="none"/>
<path clip-path="url(#TextBounds_2)" d="M199.572 275.063L199.572 276.407C199.764 276.983 200.02 277.111 200.788 277.111C201.364 277.111 202.196 277.047 202.9 276.919C203.412 276.791 203.54 276.727 203.604 276.215C203.604 274.039 203.604 274.039 203.54 270.135C203.412 264.567 203.412 264.567 203.412 262.967C204.948 262.007 205.396 261.687 205.396 261.367C205.396 261.239 205.268 261.047 205.012 260.791C203.604 259.511 203.092 259.127 201.364 257.847C200.34 258.935 200.02 259.255 199.124 260.407L192.66 260.407L192.66 252.343C193.812 252.087 193.812 252.087 200.852 250.231C201.556 250.359 201.556 250.359 202.58 250.551C203.732 250.743 203.732 250.743 203.86 250.743C204.308 250.743 204.692 250.487 204.692 250.167C204.692 249.719 203.732 248.887 201.812 247.607C201.3 247.287 200.596 246.839 199.572 246.135C197.78 247.351 195.732 248.311 192.148 249.463C186.964 251.255 181.78 252.599 176.788 253.431L177.044 254.327C181.332 254.071 184.148 253.751 188.756 253.047L188.756 260.407L182.42 260.407C180.436 259.127 179.796 258.743 177.684 257.719C177.812 259.639 177.94 265.143 177.94 271.415C177.94 274.103 177.876 275.575 177.684 277.879C177.684 278.391 177.876 278.583 178.388 278.583C179.156 278.583 181.14 278.455 181.396 278.391C181.716 278.263 181.78 278.199 181.844 277.687L181.844 275.063L188.756 275.063L188.756 286.199C185.108 286.967 177.94 287.927 174.292 288.183C176.02 293.879 176.34 294.519 176.98 294.519C177.428 294.519 177.812 293.687 178.004 292.279C184.212 290.615 196.692 287.095 201.876 285.431C203.092 287.735 203.476 288.631 204.116 290.295C204.884 292.471 205.14 292.791 205.908 292.791C206.292 292.791 206.676 292.599 206.868 292.343C207.38 291.639 207.956 289.719 207.956 288.567C207.956 287.287 207.124 286.007 204.82 283.767C202.772 281.719 201.108 280.375 198.036 278.391L197.332 278.775C199.764 282.039 200.02 282.423 201.044 283.959C196.884 284.855 196.884 284.855 192.66 285.559L192.66 275.063L199.572 275.063ZM199.572 273.591L192.66 273.591L192.66 261.879L199.572 261.879L199.572 273.591ZM188.756 273.591L181.844 273.591L181.844 261.879L188.756 261.879L188.756 273.591ZM162.516 297.207C166.228 293.175 167.7 290.999 169.62 286.903C172.756 279.863 174.164 272.311 174.228 261.495C174.292 246.647 174.292 246.647 174.356 243.255L207.316 243.255C207.188 246.583 207.188 248.247 207.188 250.423C207.188 257.911 207.572 266.231 208.148 272.439C209.044 281.143 211.348 287.287 215.828 292.407C217.492 294.391 218.964 295.351 220.308 295.351C221.524 295.351 222.1 294.775 222.1 293.559C222.1 292.663 221.908 292.087 221.204 291.191C220.436 290.231 220.244 289.847 220.244 289.399C220.308 288.247 220.308 288.247 220.372 287.351L221.332 275.959L220.372 275.639C218.836 281.463 218.324 283.191 217.236 286.455C214.612 282.615 213.78 280.439 212.82 275.575C211.86 270.455 211.348 262.839 211.348 253.367C211.348 251.447 211.348 250.679 211.412 244.727C213.14 243.767 213.844 243.191 213.844 242.807C213.844 242.679 213.78 242.551 213.524 242.295C211.796 240.823 211.22 240.375 209.236 239.031C208.212 240.247 207.892 240.567 206.996 241.783L175.124 241.783C172.82 240.311 172.052 239.927 169.556 238.775C169.94 242.295 170.068 246.455 170.068 255.735C170.068 266.295 169.556 273.847 168.532 279.351C167.316 286.071 165.716 290.231 161.876 296.567L162.516 297.207Z" fill="#ffffff" fill-rule="evenodd" opacity="1" stroke="none"/>
</g>
<path d="M53.1216 138.787C53.1216 85.7435 96.1216 42.7435 149.165 42.7435C202.208 42.7435 245.208 85.7435 245.208 138.787C245.208 191.83 202.208 234.83 149.165 234.83C96.1216 234.83 53.1216 191.83 53.1216 138.787Z" fill="#ffa64e" fill-rule="evenodd" opacity="1" stroke="none"/>
<path d="M149.874 69.8053C150.909 70.3949 145.568 96.8655 133.184 109.382C120.8 121.899 99.6543 120.331 89.8451 111.218C77.6196 99.8588 86.885 84.3757 100.82 83.1545C119.532 81.5147 116.355 92.3498 124.683 90.3135C143.717 85.6599 148.503 69.0238 149.874 69.8053Z" fill="url(#LinearGradient)" fill-rule="evenodd" opacity="1" stroke="#ffffff" stroke-linecap="round" stroke-linejoin="round" stroke-width="2"/>
<path d="M182.441 82.3133C183.875 83.1305 173.798 126.81 156.239 147.147C140.288 165.62 93.6072 164.585 83.8797 141.076C78.7058 128.573 90.194 107.154 108.443 107.619C133.866 108.267 125.897 121.897 138.92 120.188C161.633 117.207 180.54 81.23 182.441 82.3133Z" fill="url(#LinearGradient_2)" fill-rule="evenodd" opacity="1" stroke="#ffffff" stroke-linecap="round" stroke-linejoin="round" stroke-width="2"/>
<path d="M218.375 96.583C220.298 97.6785 212.921 162.491 183.911 188.129C144.71 222.775 107.956 203.665 92.235 189.061C75.219 173.254 77.0897 140.053 105.28 135.896C141.464 130.562 132.427 159.895 151.442 157.637C187.598 153.342 215.826 95.1308 218.375 96.583Z" fill="url(#LinearGradient_3)" fill-rule="evenodd" opacity="1" stroke="#ffffff" stroke-linecap="round" stroke-linejoin="round" stroke-width="2"/>
<path d="M17.8729 133.75C10.3653 136.13 9.89446 150.806 17.2451 153.317C24.5958 155.828 47.2756 143.795 47.2756 143.795C47.2756 143.795 25.3806 131.37 17.8729 133.75Z" fill="#ffa64e" fill-rule="evenodd" opacity="1" stroke="none"/>
<path d="M51.9394 46.7242C44.9225 43.1473 34.2826 53.2653 37.7528 60.2148C41.2231 67.1644 65.8205 74.5223 65.8205 74.5223C65.8205 74.5223 58.9563 50.301 51.9394 46.7242Z" fill="#ffa64e" fill-rule="evenodd" opacity="1" stroke="none"/>
<path d="M262.456 64.3272C266.081 57.3352 256.037 46.6254 249.064 50.0474C242.09 53.4693 234.562 78.0151 234.562 78.0151C234.562 78.0151 258.83 71.3191 262.456 64.3272Z" fill="#ffa64e" fill-rule="evenodd" opacity="1" stroke="none"/>
<path d="M40.2341 224.769C36.5901 231.751 46.6056 242.488 53.5881 239.084C60.5706 235.681 68.1642 211.155 68.1642 211.155C68.1642 211.155 43.8782 217.787 40.2341 224.769Z" fill="#ffa64e" fill-rule="evenodd" opacity="1" stroke="none"/>
<path d="M248.987 236.703C256.465 239.173 265.447 227.558 260.962 221.216C256.477 214.873 231.048 211.332 231.048 211.332C231.048 211.332 241.508 234.232 248.987 236.703Z" fill="#ffa64e" fill-rule="evenodd" opacity="1" stroke="none"/>
<path d="M159.804 10.8934C157.424 3.38576 142.749 2.91489 140.237 10.2656C137.726 17.6162 149.759 40.2961 149.759 40.2961C149.759 40.2961 162.185 18.401 159.804 10.8934Z" fill="#ffa64e" fill-rule="evenodd" opacity="1" stroke="none"/>
<path d="M282.127 132.34C289.635 134.721 290.106 149.396 282.755 151.907C275.404 154.418 252.724 142.385 252.724 142.385C252.724 142.385 274.619 129.96 282.127 132.34Z" fill="#ffa64e" fill-rule="evenodd" opacity="1" stroke="none"/>
</g>
</svg>
