<?xml version="1.0" encoding="UTF-8" standalone="no"?>
<!DOCTYPE svg PUBLIC "-//W3C//DTD SVG 1.1//EN" "http://www.w3.org/Graphics/SVG/1.1/DTD/svg11.dtd"
[
<!ATTLIST g
  xmlns:vectornator CDATA #FIXED "http://vectornator.io"
  vectornator:layerName CDATA #IMPLIED >
<!ATTLIST g
  xmlns:vectornator CDATA #FIXED "http://vectornator.io"
  vectornator:mask CDATA #IMPLIED >
<!ATTLIST text
  xmlns:vectornator CDATA #FIXED "http://vectornator.io"
  vectornator:width CDATA #IMPLIED >
<!ATTLIST text
  xmlns:vectornator CDATA #FIXED "http://vectornator.io"
  vectornator:text CDATA #IMPLIED >

<!ATTLIST path
  xmlns:vectornator CDATA #FIXED "http://vectornator.io"
  vectornator:blendMode CDATA #IMPLIED >
<!ATTLIST path
  xmlns:vectornator CDATA #FIXED "http://vectornator.io"
  vectornator:shadowColor CDATA #IMPLIED >
<!ATTLIST path
  xmlns:vectornator CDATA #FIXED "http://vectornator.io"
  vectornator:shadowOpacity CDATA #IMPLIED >
<!ATTLIST path
  xmlns:vectornator CDATA #FIXED "http://vectornator.io"
  vectornator:shadowRadius CDATA #IMPLIED >
<!ATTLIST path
  xmlns:vectornator CDATA #FIXED "http://vectornator.io"
  vectornator:shadowOffset CDATA #IMPLIED >
<!ATTLIST path
  xmlns:vectornator CDATA #FIXED "http://vectornator.io"
  vectornator:shadowAngle CDATA #IMPLIED >

<!ATTLIST image
  xmlns:vectornator CDATA #FIXED "http://vectornator.io"
  vectornator:blendMode CDATA #IMPLIED >
<!ATTLIST image
  xmlns:vectornator CDATA #FIXED "http://vectornator.io"
  vectornator:shadowColor CDATA #IMPLIED >
<!ATTLIST image
  xmlns:vectornator CDATA #FIXED "http://vectornator.io"
  vectornator:shadowOpacity CDATA #IMPLIED >
<!ATTLIST image
  xmlns:vectornator CDATA #FIXED "http://vectornator.io"
  vectornator:shadowRadius CDATA #IMPLIED >
<!ATTLIST image
  xmlns:vectornator CDATA #FIXED "http://vectornator.io"
  vectornator:shadowOffset CDATA #IMPLIED >
<!ATTLIST image
  xmlns:vectornator CDATA #FIXED "http://vectornator.io"
  vectornator:shadowAngle CDATA #IMPLIED >

<!ATTLIST g
  xmlns:vectornator CDATA #FIXED "http://vectornator.io"
  vectornator:blendMode CDATA #IMPLIED >
<!ATTLIST g
  xmlns:vectornator CDATA #FIXED "http://vectornator.io"
  vectornator:shadowColor CDATA #IMPLIED >
<!ATTLIST g
  xmlns:vectornator CDATA #FIXED "http://vectornator.io"
  vectornator:shadowOpacity CDATA #IMPLIED >
<!ATTLIST g
  xmlns:vectornator CDATA #FIXED "http://vectornator.io"
  vectornator:shadowRadius CDATA #IMPLIED >
<!ATTLIST g
  xmlns:vectornator CDATA #FIXED "http://vectornator.io"
  vectornator:shadowOffset CDATA #IMPLIED >
<!ATTLIST g
  xmlns:vectornator CDATA #FIXED "http://vectornator.io"
  vectornator:shadowAngle CDATA #IMPLIED >

<!ENTITY % SVG.filter.extra.content  "| feDropShadow" >
<!ELEMENT feDropShadow EMPTY>
<!ATTLIST feDropShadow
  xmlns:svg CDATA #FIXED "http://www.w3.org/Graphics/SVG/1.1/DTD/svg11.dtd"
  dx CDATA #IMPLIED>
<!ATTLIST feDropShadow
  xmlns:svg CDATA #FIXED "http://www.w3.org/Graphics/SVG/1.1/DTD/svg11.dtd"
  dy CDATA #IMPLIED>
<!ATTLIST feDropShadow
  xmlns:svg CDATA #FIXED "http://www.w3.org/Graphics/SVG/1.1/DTD/svg11.dtd"
  stdDeviation CDATA #IMPLIED>
<!ATTLIST feDropShadow
  xmlns:svg CDATA #FIXED "http://www.w3.org/Graphics/SVG/1.1/DTD/svg11.dtd"
  flood-opacity CDATA #IMPLIED>
<!ATTLIST feDropShadow
  xmlns:svg CDATA #FIXED "http://www.w3.org/Graphics/SVG/1.1/DTD/svg11.dtd"
  in CDATA #IMPLIED>
<!ATTLIST feDropShadow
  xmlns:svg CDATA #FIXED "http://www.w3.org/Graphics/SVG/1.1/DTD/svg11.dtd"
  result CDATA #IMPLIED>
<!ATTLIST feDropShadow
  xmlns:svg CDATA #FIXED "http://www.w3.org/Graphics/SVG/1.1/DTD/svg11.dtd"
  flood-color CDATA #IMPLIED>
]
>
<!-- Created with Vectornator (http://vectornator.io/) -->
<svg height="100%" stroke-miterlimit="10" style="fill-rule:nonzero;clip-rule:evenodd;stroke-linecap:round;stroke-linejoin:round;" version="1.1" viewBox="0 0 1400 800" width="100%" xml:space="preserve" xmlns="http://www.w3.org/2000/svg" xmlns:vectornator="http://vectornator.io" xmlns:xlink="http://www.w3.org/1999/xlink">
<defs/>
<g id="レイヤー-1" vectornator:layerName="レイヤー 1">
<g opacity="0.6">
<g opacity="1">
<path d="M26.6582 64.3265C20.9829 84.4957 12.0607 111.399 23.3916 124.688C34.7226 137.976 61.0593 136.512 71.9819 117.48C82.9045 98.4486 79.4004 60.2013 67.082 48.5605C53.5157 35.7405 56.1988 40.0696 46.0929 44.0111C35.9869 47.9526 32.3335 44.1574 26.6582 64.3265Z" fill="#a7895d" fill-rule="evenodd" opacity="1" stroke="none"/>
<path d="M45.9075 57.8095C45.7176 57.6128 42.34 59.4558 41.0348 61.8179C39.7296 64.18 40.4969 67.0613 40.6867 67.2579C40.8766 67.4546 40.489 64.9666 41.7942 62.6045C43.0993 60.2424 46.0973 58.0061 45.9075 57.8095Z" fill="#5e5b56" fill-rule="evenodd" opacity="1" stroke="none"/>
<path d="M59.1154 109.283C59.1607 108.912 57.0604 105.709 55.3511 105.52C53.6418 105.33 52.3235 108.155 52.2782 108.526C52.2329 108.897 53.4606 106.814 55.1699 107.003C56.8792 107.192 59.0701 109.654 59.1154 109.283Z" fill="#5e5b56" fill-rule="evenodd" opacity="1" stroke="none"/>
<path d="M38.3397 96.0096C38.1908 95.6734 34.8317 94.2959 33.3149 95.1857C31.7981 96.0754 32.1235 99.2323 32.2725 99.5685C32.4215 99.9047 32.394 97.4201 33.9108 96.5304C35.4277 95.6406 38.4887 96.3457 38.3397 96.0096Z" fill="#5e5b56" fill-rule="evenodd" opacity="1" stroke="none"/>
</g>
<path d="M83.0902 213.531C77.5366 233.268 79.0138 256.671 92.7018 266.195C104.253 274.231 119.895 266.314 140.251 259.142C159.284 252.435 155.779 235.862 152.099 218.2C148.182 199.406 133.881 185.109 115.662 183.079C105.226 181.916 88.6439 193.794 83.0902 213.531Z" fill="#caaa7b" fill-rule="evenodd" opacity="0.988462" stroke="none"/>
<path d="M82.7632 564.579C77.472 583.383 78.8794 605.68 91.9205 614.754C102.926 622.411 117.828 614.867 137.222 608.034C155.357 601.645 152.017 585.855 148.511 569.027C144.779 551.122 131.153 537.5 113.796 535.566C103.853 534.458 88.0544 545.774 82.7632 564.579Z" fill="#f8bc64" fill-rule="evenodd" opacity="1" stroke="none"/>
<path d="M129.111 231.74C128.925 231.548 125.619 233.351 124.342 235.663C123.065 237.974 123.816 240.794 124.002 240.986C124.187 241.178 123.808 238.744 125.085 236.432C126.363 234.121 129.296 231.933 129.111 231.74Z" fill="#5e5b56" fill-rule="evenodd" opacity="0.988462" stroke="none"/>
<path d="M104.547 597.397C104.37 597.214 101.221 598.932 100.004 601.135C98.7873 603.337 99.5027 606.023 99.6796 606.206C99.8566 606.39 99.4953 604.07 100.712 601.868C101.929 599.666 104.724 597.581 104.547 597.397Z" fill="#5e5b56" fill-rule="evenodd" opacity="1" stroke="none"/>
<path d="M139.398 209.217C139.442 208.854 137.387 205.72 135.714 205.535C134.041 205.35 132.751 208.114 132.707 208.477C132.663 208.84 133.864 206.801 135.537 206.986C137.209 207.171 139.353 209.58 139.398 209.217Z" fill="#5e5b56" fill-rule="evenodd" opacity="0.988462" stroke="none"/>
<path d="M119.35 579.88C119.392 579.535 117.434 576.548 115.84 576.372C114.247 576.195 113.018 578.829 112.975 579.175C112.933 579.521 114.078 577.578 115.671 577.755C117.265 577.931 119.308 580.226 119.35 579.88Z" fill="#5e5b56" fill-rule="evenodd" opacity="1" stroke="none"/>
<path d="M96.1126 229.142C95.9668 228.813 92.6798 227.465 91.1955 228.336C89.7112 229.207 90.0297 232.296 90.1755 232.625C90.3212 232.954 90.2944 230.523 91.7787 229.652C93.263 228.781 96.2584 229.471 96.1126 229.142Z" fill="#5e5b56" fill-rule="evenodd" opacity="0.988462" stroke="none"/>
<path d="M111.605 549.695C111.466 549.381 108.334 548.097 106.92 548.927C105.506 549.756 105.809 552.7 105.948 553.013C106.087 553.326 106.061 551.01 107.476 550.18C108.89 549.351 111.744 550.008 111.605 549.695Z" fill="#5e5b56" fill-rule="evenodd" opacity="1" stroke="none"/>
<path d="M20.103 402.092C14.4868 422.051 27.0152 431.058 38.2281 444.208C49.441 457.358 75.111 451.919 85.9198 433.085C96.7286 414.252 95.731 376.62 83.5409 365.1C70.1159 352.414 66.014 353.077 56.0134 356.977C46.0127 360.878 25.7192 382.133 20.103 402.092Z" fill="#a57f46" fill-rule="evenodd" opacity="1" stroke="none"/>
<path d="M59.1333 375.927C58.9455 375.732 55.603 377.556 54.3114 379.893C53.0198 382.231 53.7791 385.082 53.967 385.277C54.1548 385.471 53.7713 383.009 55.0629 380.672C56.3545 378.334 59.3212 376.121 59.1333 375.927Z" fill="#5e5b56" fill-rule="evenodd" opacity="1" stroke="none"/>
<path d="M43.3603 404.367C43.4052 404 41.3268 400.83 39.6353 400.643C37.9438 400.456 36.6391 403.252 36.5943 403.618C36.5495 403.985 37.7644 401.924 39.4559 402.111C41.1474 402.298 43.3155 404.734 43.3603 404.367Z" fill="#5e5b56" fill-rule="evenodd" opacity="1" stroke="none"/>
<path d="M74.4901 417.278C74.4037 417.083 73.225 416.533 71.962 416.29C71.0712 416.118 70.1385 416.098 69.5176 416.462C68.0166 417.343 68.3387 420.467 68.4861 420.8C68.6335 421.132 68.6064 418.674 70.1074 417.793C71.6084 416.913 74.6375 417.61 74.4901 417.278Z" fill="#5e5b56" fill-rule="evenodd" opacity="1" stroke="none"/>
<path d="M28.6315 687.021C11.3564 701.741 10.2951 743.68 26.6241 754.084C45.5211 766.123 74.4123 759.231 88.1077 738.461C93.6686 730.027 88.9729 690.711 74.4302 678.105C64.2758 669.303 58.7022 664.009 47.179 668.503C35.6557 672.997 41.3764 676.162 28.6315 687.021Z" fill="#d5a968" fill-rule="evenodd" opacity="1" stroke="none"/>
<path d="M39.4646 720.775C39.2481 720.55 35.3968 722.652 33.9085 725.345C32.4203 728.039 33.2952 731.324 33.5117 731.548C33.7281 731.772 33.2862 728.935 34.7744 726.242C36.2626 723.549 39.6811 720.999 39.4646 720.775Z" fill="#5e5b56" fill-rule="evenodd" opacity="1" stroke="none"/>
<path d="M49.7938 745.215C49.8455 744.792 47.4506 741.14 45.5016 740.924C43.5526 740.708 42.0493 743.93 41.9977 744.352C41.946 744.775 43.3459 742.4 45.295 742.616C47.244 742.831 49.7421 745.638 49.7938 745.215Z" fill="#5e5b56" fill-rule="evenodd" opacity="1" stroke="none"/>
<path d="M59.074 687.919C58.9041 687.535 55.074 685.965 53.3445 686.979C51.615 687.994 51.986 691.593 52.1559 691.977C52.3258 692.36 52.2945 689.527 54.024 688.513C55.7535 687.498 59.2439 688.302 59.074 687.919Z" fill="#5e5b56" fill-rule="evenodd" opacity="1" stroke="none"/>
</g>
<g opacity="0.6">
<g opacity="1">
<path d="M1378.34 64.3265C1384.02 84.4957 1392.94 111.399 1381.61 124.688C1370.28 137.976 1343.94 136.512 1333.02 117.48C1322.1 98.4486 1325.6 60.2013 1337.92 48.5605C1351.48 35.7405 1348.8 40.0696 1358.91 44.0111C1369.01 47.9526 1372.67 44.1574 1378.34 64.3265Z" fill="#a7895d" fill-rule="evenodd" opacity="1" stroke="none"/>
<path d="M1359.09 57.8095C1359.28 57.6128 1362.66 59.4558 1363.97 61.8179C1365.27 64.18 1364.5 67.0613 1364.31 67.2579C1364.12 67.4546 1364.51 64.9666 1363.21 62.6045C1361.9 60.2424 1358.9 58.0061 1359.09 57.8095Z" fill="#5e5b56" fill-rule="evenodd" opacity="1" stroke="none"/>
<path d="M1345.88 109.283C1345.84 108.912 1347.94 105.709 1349.65 105.52C1351.36 105.33 1352.68 108.155 1352.72 108.526C1352.77 108.897 1351.54 106.814 1349.83 107.003C1348.12 107.192 1345.93 109.654 1345.88 109.283Z" fill="#5e5b56" fill-rule="evenodd" opacity="1" stroke="none"/>
<path d="M1366.66 96.0096C1366.81 95.6734 1370.17 94.2959 1371.69 95.1857C1373.2 96.0754 1372.88 99.2323 1372.73 99.5685C1372.58 99.9047 1372.61 97.4201 1371.09 96.5304C1369.57 95.6406 1366.51 96.3457 1366.66 96.0096Z" fill="#5e5b56" fill-rule="evenodd" opacity="1" stroke="none"/>
</g>
<path d="M1321.91 213.531C1327.46 233.268 1325.99 256.671 1312.3 266.195C1300.75 274.231 1285.11 266.314 1264.75 259.142C1245.72 252.435 1249.22 235.862 1252.9 218.2C1256.82 199.406 1271.12 185.109 1289.34 183.079C1299.77 181.916 1316.36 193.794 1321.91 213.531Z" fill="#caaa7b" fill-rule="evenodd" opacity="0.988462" stroke="none"/>
<path d="M1322.24 564.579C1327.53 583.383 1326.12 605.68 1313.08 614.754C1302.07 622.411 1287.17 614.867 1267.78 608.034C1249.64 601.645 1252.98 585.855 1256.49 569.027C1260.22 551.122 1273.85 537.5 1291.2 535.566C1301.15 534.458 1316.95 545.774 1322.24 564.579Z" fill="#f8bc64" fill-rule="evenodd" opacity="1" stroke="none"/>
<path d="M1275.89 231.74C1276.08 231.548 1279.38 233.351 1280.66 235.663C1281.93 237.974 1281.18 240.794 1281 240.986C1280.81 241.178 1281.19 238.744 1279.91 236.432C1278.64 234.121 1275.7 231.933 1275.89 231.74Z" fill="#5e5b56" fill-rule="evenodd" opacity="0.988462" stroke="none"/>
<path d="M1300.45 597.397C1300.63 597.214 1303.78 598.932 1305 601.135C1306.21 603.337 1305.5 606.023 1305.32 606.206C1305.14 606.39 1305.5 604.07 1304.29 601.868C1303.07 599.666 1300.28 597.581 1300.45 597.397Z" fill="#5e5b56" fill-rule="evenodd" opacity="1" stroke="none"/>
<path d="M1265.6 209.217C1265.56 208.854 1267.61 205.72 1269.29 205.535C1270.96 205.35 1272.25 208.114 1272.29 208.477C1272.34 208.84 1271.14 206.801 1269.46 206.986C1267.79 207.171 1265.65 209.58 1265.6 209.217Z" fill="#5e5b56" fill-rule="evenodd" opacity="0.988462" stroke="none"/>
<path d="M1285.65 579.88C1285.61 579.535 1287.57 576.548 1289.16 576.372C1290.75 576.195 1291.98 578.829 1292.02 579.175C1292.07 579.521 1290.92 577.578 1289.33 577.755C1287.73 577.931 1285.69 580.226 1285.65 579.88Z" fill="#5e5b56" fill-rule="evenodd" opacity="1" stroke="none"/>
<path d="M1308.89 229.142C1309.03 228.813 1312.32 227.465 1313.8 228.336C1315.29 229.207 1314.97 232.296 1314.82 232.625C1314.68 232.954 1314.71 230.523 1313.22 229.652C1311.74 228.781 1308.74 229.471 1308.89 229.142Z" fill="#5e5b56" fill-rule="evenodd" opacity="0.988462" stroke="none"/>
<path d="M1293.4 549.695C1293.53 549.381 1296.67 548.097 1298.08 548.927C1299.49 549.756 1299.19 552.7 1299.05 553.013C1298.91 553.326 1298.94 551.01 1297.52 550.18C1296.11 549.351 1293.26 550.008 1293.4 549.695Z" fill="#5e5b56" fill-rule="evenodd" opacity="1" stroke="none"/>
<path d="M1384.9 402.092C1390.51 422.051 1377.98 431.058 1366.77 444.208C1355.56 457.358 1329.89 451.919 1319.08 433.085C1308.27 414.252 1309.27 376.62 1321.46 365.1C1334.88 352.414 1338.99 353.077 1348.99 356.977C1358.99 360.878 1379.28 382.133 1384.9 402.092Z" fill="#a57f46" fill-rule="evenodd" opacity="1" stroke="none"/>
<path d="M1345.87 375.927C1346.05 375.732 1349.4 377.556 1350.69 379.893C1351.98 382.231 1351.22 385.082 1351.03 385.277C1350.85 385.471 1351.23 383.009 1349.94 380.672C1348.65 378.334 1345.68 376.121 1345.87 375.927Z" fill="#5e5b56" fill-rule="evenodd" opacity="1" stroke="none"/>
<path d="M1361.64 404.367C1361.59 404 1363.67 400.83 1365.36 400.643C1367.06 400.456 1368.36 403.252 1368.41 403.618C1368.45 403.985 1367.24 401.924 1365.54 402.111C1363.85 402.298 1361.68 404.734 1361.64 404.367Z" fill="#5e5b56" fill-rule="evenodd" opacity="1" stroke="none"/>
<path d="M1330.51 417.278C1330.6 417.083 1331.78 416.533 1333.04 416.29C1333.93 416.118 1334.86 416.098 1335.48 416.462C1336.98 417.343 1336.66 420.467 1336.51 420.8C1336.37 421.132 1336.39 418.674 1334.89 417.793C1333.39 416.913 1330.36 417.61 1330.51 417.278Z" fill="#5e5b56" fill-rule="evenodd" opacity="1" stroke="none"/>
<path d="M1376.37 687.021C1393.64 701.741 1394.7 743.68 1378.38 754.084C1359.48 766.123 1330.59 759.231 1316.89 738.461C1311.33 730.027 1316.03 690.711 1330.57 678.105C1340.72 669.303 1346.3 664.009 1357.82 668.503C1369.34 672.997 1363.62 676.162 1376.37 687.021Z" fill="#d5a968" fill-rule="evenodd" opacity="1" stroke="none"/>
<path d="M1365.54 720.775C1365.75 720.55 1369.6 722.652 1371.09 725.345C1372.58 728.039 1371.7 731.324 1371.49 731.548C1371.27 731.772 1371.71 728.935 1370.23 726.242C1368.74 723.549 1365.32 720.999 1365.54 720.775Z" fill="#5e5b56" fill-rule="evenodd" opacity="1" stroke="none"/>
<path d="M1355.21 745.215C1355.15 744.792 1357.55 741.14 1359.5 740.924C1361.45 740.708 1362.95 743.93 1363 744.352C1363.05 744.775 1361.65 742.4 1359.71 742.616C1357.76 742.831 1355.26 745.638 1355.21 745.215Z" fill="#5e5b56" fill-rule="evenodd" opacity="1" stroke="none"/>
<path d="M1345.93 687.919C1346.1 687.535 1349.93 685.965 1351.66 686.979C1353.39 687.994 1353.01 691.593 1352.84 691.977C1352.67 692.36 1352.71 689.527 1350.98 688.513C1349.25 687.498 1345.76 688.302 1345.93 687.919Z" fill="#5e5b56" fill-rule="evenodd" opacity="1" stroke="none"/>
</g>
</g>
</svg>
