<?xml version="1.0" encoding="UTF-8" standalone="no"?>
<!DOCTYPE svg PUBLIC "-//W3C//DTD SVG 1.1//EN" "http://www.w3.org/Graphics/SVG/1.1/DTD/svg11.dtd"
[
<!ATTLIST g
  xmlns:vectornator CDATA #FIXED "http://vectornator.io"
  vectornator:layerName CDATA #IMPLIED >
<!ATTLIST g
  xmlns:vectornator CDATA #FIXED "http://vectornator.io"
  vectornator:mask CDATA #IMPLIED >
<!ATTLIST text
  xmlns:vectornator CDATA #FIXED "http://vectornator.io"
  vectornator:width CDATA #IMPLIED >
<!ATTLIST text
  xmlns:vectornator CDATA #FIXED "http://vectornator.io"
  vectornator:text CDATA #IMPLIED >

<!ATTLIST path
  xmlns:vectornator CDATA #FIXED "http://vectornator.io"
  vectornator:blendMode CDATA #IMPLIED >
<!ATTLIST path
  xmlns:vectornator CDATA #FIXED "http://vectornator.io"
  vectornator:shadowColor CDATA #IMPLIED >
<!ATTLIST path
  xmlns:vectornator CDATA #FIXED "http://vectornator.io"
  vectornator:shadowOpacity CDATA #IMPLIED >
<!ATTLIST path
  xmlns:vectornator CDATA #FIXED "http://vectornator.io"
  vectornator:shadowRadius CDATA #IMPLIED >
<!ATTLIST path
  xmlns:vectornator CDATA #FIXED "http://vectornator.io"
  vectornator:shadowOffset CDATA #IMPLIED >
<!ATTLIST path
  xmlns:vectornator CDATA #FIXED "http://vectornator.io"
  vectornator:shadowAngle CDATA #IMPLIED >

<!ATTLIST image
  xmlns:vectornator CDATA #FIXED "http://vectornator.io"
  vectornator:blendMode CDATA #IMPLIED >
<!ATTLIST image
  xmlns:vectornator CDATA #FIXED "http://vectornator.io"
  vectornator:shadowColor CDATA #IMPLIED >
<!ATTLIST image
  xmlns:vectornator CDATA #FIXED "http://vectornator.io"
  vectornator:shadowOpacity CDATA #IMPLIED >
<!ATTLIST image
  xmlns:vectornator CDATA #FIXED "http://vectornator.io"
  vectornator:shadowRadius CDATA #IMPLIED >
<!ATTLIST image
  xmlns:vectornator CDATA #FIXED "http://vectornator.io"
  vectornator:shadowOffset CDATA #IMPLIED >
<!ATTLIST image
  xmlns:vectornator CDATA #FIXED "http://vectornator.io"
  vectornator:shadowAngle CDATA #IMPLIED >

<!ATTLIST g
  xmlns:vectornator CDATA #FIXED "http://vectornator.io"
  vectornator:blendMode CDATA #IMPLIED >
<!ATTLIST g
  xmlns:vectornator CDATA #FIXED "http://vectornator.io"
  vectornator:shadowColor CDATA #IMPLIED >
<!ATTLIST g
  xmlns:vectornator CDATA #FIXED "http://vectornator.io"
  vectornator:shadowOpacity CDATA #IMPLIED >
<!ATTLIST g
  xmlns:vectornator CDATA #FIXED "http://vectornator.io"
  vectornator:shadowRadius CDATA #IMPLIED >
<!ATTLIST g
  xmlns:vectornator CDATA #FIXED "http://vectornator.io"
  vectornator:shadowOffset CDATA #IMPLIED >
<!ATTLIST g
  xmlns:vectornator CDATA #FIXED "http://vectornator.io"
  vectornator:shadowAngle CDATA #IMPLIED >

<!ENTITY % SVG.filter.extra.content  "| feDropShadow" >
<!ELEMENT feDropShadow EMPTY>
<!ATTLIST feDropShadow
  xmlns:svg CDATA #FIXED "http://www.w3.org/Graphics/SVG/1.1/DTD/svg11.dtd"
  dx CDATA #IMPLIED>
<!ATTLIST feDropShadow
  xmlns:svg CDATA #FIXED "http://www.w3.org/Graphics/SVG/1.1/DTD/svg11.dtd"
  dy CDATA #IMPLIED>
<!ATTLIST feDropShadow
  xmlns:svg CDATA #FIXED "http://www.w3.org/Graphics/SVG/1.1/DTD/svg11.dtd"
  stdDeviation CDATA #IMPLIED>
<!ATTLIST feDropShadow
  xmlns:svg CDATA #FIXED "http://www.w3.org/Graphics/SVG/1.1/DTD/svg11.dtd"
  flood-opacity CDATA #IMPLIED>
<!ATTLIST feDropShadow
  xmlns:svg CDATA #FIXED "http://www.w3.org/Graphics/SVG/1.1/DTD/svg11.dtd"
  in CDATA #IMPLIED>
<!ATTLIST feDropShadow
  xmlns:svg CDATA #FIXED "http://www.w3.org/Graphics/SVG/1.1/DTD/svg11.dtd"
  result CDATA #IMPLIED>
<!ATTLIST feDropShadow
  xmlns:svg CDATA #FIXED "http://www.w3.org/Graphics/SVG/1.1/DTD/svg11.dtd"
  flood-color CDATA #IMPLIED>
]
>
<!-- Created with Vectornator (http://vectornator.io/) -->
<svg height="100%" stroke-miterlimit="10" style="fill-rule:nonzero;clip-rule:evenodd;stroke-linecap:round;stroke-linejoin:round;" version="1.1" viewBox="0 0 1400 800" width="100%" xml:space="preserve" xmlns="http://www.w3.org/2000/svg" xmlns:vectornator="http://vectornator.io" xmlns:xlink="http://www.w3.org/1999/xlink">
<defs/>
<g id="レイヤー-1" vectornator:layerName="レイヤー 1">
<g opacity="0.25">
<g opacity="1">
<path d="M19.9643 64.3265C15.1136 84.4957 7.4878 111.399 17.1723 124.688C26.8569 137.976 49.3669 136.512 58.7025 117.48C68.038 98.4486 65.0431 60.2013 54.5145 48.5605C42.9194 35.7405 45.2127 40.0696 36.5751 44.0111C27.9375 47.9526 24.815 44.1574 19.9643 64.3265Z" fill="#a7895d" fill-rule="evenodd" opacity="1" stroke="none"/>
<path d="M36.4166 57.8095C36.2544 57.6128 33.3675 59.4558 32.2519 61.8179C31.1364 64.18 31.7922 67.0613 31.9545 67.2579C32.1167 67.4546 31.7854 64.9666 32.901 62.6045C34.0165 60.2424 36.5789 58.0061 36.4166 57.8095Z" fill="#5e5b56" fill-rule="evenodd" opacity="1" stroke="none"/>
<path d="M47.7055 109.283C47.7442 108.912 45.9491 105.709 44.4881 105.52C43.0272 105.33 41.9004 108.155 41.8617 108.526C41.823 108.897 42.8723 106.814 44.3332 107.003C45.7942 107.192 47.6668 109.654 47.7055 109.283Z" fill="#5e5b56" fill-rule="evenodd" opacity="1" stroke="none"/>
<path d="M29.9485 96.0096C29.8212 95.6734 26.9502 94.2959 25.6538 95.1857C24.3574 96.0754 24.6355 99.2323 24.7628 99.5685C24.8902 99.9047 24.8667 97.4201 26.1631 96.5304C27.4595 95.6406 30.0758 96.3457 29.9485 96.0096Z" fill="#5e5b56" fill-rule="evenodd" opacity="1" stroke="none"/>
</g>
<path d="M48.5386 213.531C43.7919 233.268 45.0545 256.671 56.7537 266.195C66.6264 274.231 79.9955 266.314 97.3937 259.142C113.662 252.435 110.666 235.862 107.52 218.2C104.173 199.406 91.9492 185.109 76.378 183.079C67.4583 181.916 53.2854 193.794 48.5386 213.531Z" fill="#caaa7b" fill-rule="evenodd" opacity="0.988462" stroke="none"/>
<path d="M48.2591 564.579C43.7367 583.383 44.9397 605.68 56.0859 614.754C65.492 622.411 78.2294 614.867 94.8053 608.034C110.305 601.645 107.45 585.855 104.453 569.027C101.264 551.122 89.6181 537.5 74.7828 535.566C66.2846 534.458 52.7815 545.774 48.2591 564.579Z" fill="#f8bc64" fill-rule="evenodd" opacity="1" stroke="none"/>
<path d="M87.8722 231.74C87.7134 231.548 84.8884 233.351 83.7968 235.663C82.7052 237.974 83.3469 240.794 83.5057 240.986C83.6645 241.178 83.3403 238.744 84.4319 236.432C85.5236 234.121 88.031 231.933 87.8722 231.74Z" fill="#5e5b56" fill-rule="evenodd" opacity="0.988462" stroke="none"/>
<path d="M66.8778 597.397C66.7265 597.214 64.035 598.932 62.995 601.135C61.9549 603.337 62.5664 606.023 62.7176 606.206C62.8689 606.39 62.5601 604.07 63.6001 601.868C64.6402 599.666 67.0291 597.581 66.8778 597.397Z" fill="#5e5b56" fill-rule="evenodd" opacity="1" stroke="none"/>
<path d="M96.6647 209.217C96.7026 208.854 94.9459 205.72 93.5163 205.535C92.0866 205.35 90.984 208.114 90.9461 208.477C90.9082 208.84 91.9351 206.801 93.3647 206.986C94.7944 207.171 96.6268 209.58 96.6647 209.217Z" fill="#5e5b56" fill-rule="evenodd" opacity="0.988462" stroke="none"/>
<path d="M79.5298 579.88C79.5659 579.535 77.8923 576.548 76.5302 576.372C75.1681 576.195 74.1176 578.829 74.0815 579.175C74.0454 579.521 75.0237 577.578 76.3858 577.755C77.7479 577.931 79.4937 580.226 79.5298 579.88Z" fill="#5e5b56" fill-rule="evenodd" opacity="1" stroke="none"/>
<path d="M59.6689 229.142C59.5443 228.813 56.7349 227.465 55.4663 228.336C54.1976 229.207 54.4698 232.296 54.5944 232.625C54.719 232.954 54.696 230.523 55.9647 229.652C57.2333 228.781 59.7935 229.471 59.6689 229.142Z" fill="#5e5b56" fill-rule="evenodd" opacity="0.988462" stroke="none"/>
<path d="M72.91 549.695C72.7913 549.381 70.1146 548.097 68.906 548.927C67.6973 549.756 67.9566 552.7 68.0753 553.013C68.194 553.326 68.1722 551.01 69.3808 550.18C70.5895 549.351 73.0287 550.008 72.91 549.695Z" fill="#5e5b56" fill-rule="evenodd" opacity="1" stroke="none"/>
<path d="M14.3615 402.092C9.56135 422.051 20.2694 431.058 29.8531 444.208C39.4367 457.358 61.3769 451.919 70.6152 433.085C79.8535 414.252 79.0008 376.62 68.5819 365.1C57.1076 352.414 53.6017 353.077 45.0542 356.977C36.5066 360.878 19.1617 382.133 14.3615 402.092Z" fill="#a57f46" fill-rule="evenodd" opacity="1" stroke="none"/>
<path d="M47.7208 375.927C47.5602 375.732 44.7034 377.556 43.5995 379.893C42.4956 382.231 43.1445 385.082 43.3051 385.277C43.4657 385.471 43.1378 383.009 44.2418 380.672C45.3457 378.334 47.8814 376.121 47.7208 375.927Z" fill="#5e5b56" fill-rule="evenodd" opacity="1" stroke="none"/>
<path d="M34.2396 404.367C34.2779 404 32.5015 400.83 31.0558 400.643C29.6101 400.456 28.495 403.252 28.4567 403.618C28.4184 403.985 29.4568 401.924 30.9025 402.111C32.3482 402.298 34.2013 404.734 34.2396 404.367Z" fill="#5e5b56" fill-rule="evenodd" opacity="1" stroke="none"/>
<path d="M60.8463 417.278C60.7724 417.083 59.7649 416.533 58.6855 416.29C57.9241 416.118 57.1269 416.098 56.5963 416.462C55.3134 417.343 55.5886 420.467 55.7146 420.8C55.8406 421.132 55.8174 418.674 57.1003 417.793C58.3832 416.913 60.9723 417.61 60.8463 417.278Z" fill="#5e5b56" fill-rule="evenodd" opacity="1" stroke="none"/>
<path d="M21.6509 687.021C6.88581 701.741 5.9787 743.68 19.9351 754.084C36.0864 766.123 60.7797 759.231 72.4852 738.461C77.2381 730.027 73.2247 690.711 60.7951 678.105C52.116 669.303 47.3523 664.009 37.5034 668.503C27.6545 672.997 32.5439 676.162 21.6509 687.021Z" fill="#d5a968" fill-rule="evenodd" opacity="1" stroke="none"/>
<path d="M30.9099 720.775C30.7249 720.55 27.4331 722.652 26.1611 725.345C24.8892 728.039 25.6369 731.324 25.8219 731.548C26.007 731.772 25.6292 728.935 26.9012 726.242C28.1732 723.549 31.0949 720.999 30.9099 720.775Z" fill="#5e5b56" fill-rule="evenodd" opacity="1" stroke="none"/>
<path d="M39.7383 745.215C39.7824 744.792 37.7356 741.14 36.0697 740.924C34.4039 740.708 33.1191 743.93 33.0749 744.352C33.0308 744.775 34.2273 742.4 35.8931 742.616C37.559 742.831 39.6941 745.638 39.7383 745.215Z" fill="#5e5b56" fill-rule="evenodd" opacity="1" stroke="none"/>
<path d="M47.6701 687.919C47.5249 687.535 44.2513 685.965 42.7731 686.979C41.2948 687.994 41.612 691.593 41.7572 691.977C41.9024 692.36 41.8756 689.527 43.3538 688.513C44.8321 687.498 47.8153 688.302 47.6701 687.919Z" fill="#5e5b56" fill-rule="evenodd" opacity="1" stroke="none"/>
</g>
<g opacity="0.25">
<g opacity="1">
<path d="M1380.04 64.3265C1384.89 84.4957 1392.51 111.399 1382.83 124.688C1373.14 137.976 1350.63 136.512 1341.3 117.48C1331.96 98.4486 1334.96 60.2013 1345.49 48.5605C1357.08 35.7405 1354.79 40.0696 1363.42 44.0111C1372.06 47.9526 1375.19 44.1574 1380.04 64.3265Z" fill="#a7895d" fill-rule="evenodd" opacity="1" stroke="none"/>
<path d="M1363.58 57.8095C1363.75 57.6128 1366.63 59.4558 1367.75 61.8179C1368.86 64.18 1368.21 67.0613 1368.05 67.2579C1367.88 67.4546 1368.21 64.9666 1367.1 62.6045C1365.98 60.2424 1363.42 58.0061 1363.58 57.8095Z" fill="#5e5b56" fill-rule="evenodd" opacity="1" stroke="none"/>
<path d="M1352.29 109.283C1352.26 108.912 1354.05 105.709 1355.51 105.52C1356.97 105.33 1358.1 108.155 1358.14 108.526C1358.18 108.897 1357.13 106.814 1355.67 107.003C1354.21 107.192 1352.33 109.654 1352.29 109.283Z" fill="#5e5b56" fill-rule="evenodd" opacity="1" stroke="none"/>
<path d="M1370.05 96.0096C1370.18 95.6734 1373.05 94.2959 1374.35 95.1857C1375.64 96.0754 1375.36 99.2323 1375.24 99.5685C1375.11 99.9047 1375.13 97.4201 1373.84 96.5304C1372.54 95.6406 1369.92 96.3457 1370.05 96.0096Z" fill="#5e5b56" fill-rule="evenodd" opacity="1" stroke="none"/>
</g>
<path d="M1351.46 213.531C1356.21 233.268 1354.95 256.671 1343.25 266.195C1333.37 274.231 1320 266.314 1302.61 259.142C1286.34 252.435 1289.33 235.862 1292.48 218.2C1295.83 199.406 1308.05 185.109 1323.62 183.079C1332.54 181.916 1346.71 193.794 1351.46 213.531Z" fill="#caaa7b" fill-rule="evenodd" opacity="0.988462" stroke="none"/>
<path d="M1351.74 564.579C1356.26 583.383 1355.06 605.68 1343.91 614.754C1334.51 622.411 1321.77 614.867 1305.19 608.034C1289.7 601.645 1292.55 585.855 1295.55 569.027C1298.74 551.122 1310.38 537.5 1325.22 535.566C1333.72 534.458 1347.22 545.774 1351.74 564.579Z" fill="#f8bc64" fill-rule="evenodd" opacity="1" stroke="none"/>
<path d="M1312.13 231.74C1312.29 231.548 1315.11 233.351 1316.2 235.663C1317.29 237.974 1316.65 240.794 1316.49 240.986C1316.34 241.178 1316.66 238.744 1315.57 236.432C1314.48 234.121 1311.97 231.933 1312.13 231.74Z" fill="#5e5b56" fill-rule="evenodd" opacity="0.988462" stroke="none"/>
<path d="M1333.12 597.397C1333.27 597.214 1335.96 598.932 1337.01 601.135C1338.05 603.337 1337.43 606.023 1337.28 606.206C1337.13 606.39 1337.44 604.07 1336.4 601.868C1335.36 599.666 1332.97 597.581 1333.12 597.397Z" fill="#5e5b56" fill-rule="evenodd" opacity="1" stroke="none"/>
<path d="M1303.34 209.217C1303.3 208.854 1305.05 205.72 1306.48 205.535C1307.91 205.35 1309.02 208.114 1309.05 208.477C1309.09 208.84 1308.06 206.801 1306.64 206.986C1305.21 207.171 1303.37 209.58 1303.34 209.217Z" fill="#5e5b56" fill-rule="evenodd" opacity="0.988462" stroke="none"/>
<path d="M1320.47 579.88C1320.43 579.535 1322.11 576.548 1323.47 576.372C1324.83 576.195 1325.88 578.829 1325.92 579.175C1325.95 579.521 1324.98 577.578 1323.61 577.755C1322.25 577.931 1320.51 580.226 1320.47 579.88Z" fill="#5e5b56" fill-rule="evenodd" opacity="1" stroke="none"/>
<path d="M1340.33 229.142C1340.46 228.813 1343.27 227.465 1344.53 228.336C1345.8 229.207 1345.53 232.296 1345.41 232.625C1345.28 232.954 1345.3 230.523 1344.04 229.652C1342.77 228.781 1340.21 229.471 1340.33 229.142Z" fill="#5e5b56" fill-rule="evenodd" opacity="0.988462" stroke="none"/>
<path d="M1327.09 549.695C1327.21 549.381 1329.89 548.097 1331.09 548.927C1332.3 549.756 1332.04 552.7 1331.92 553.013C1331.81 553.326 1331.83 551.01 1330.62 550.18C1329.41 549.351 1326.97 550.008 1327.09 549.695Z" fill="#5e5b56" fill-rule="evenodd" opacity="1" stroke="none"/>
<path d="M1385.64 402.092C1390.44 422.051 1379.73 431.058 1370.15 444.208C1360.56 457.358 1338.62 451.919 1329.38 433.085C1320.15 414.252 1321 376.62 1331.42 365.1C1342.89 352.414 1346.4 353.077 1354.95 356.977C1363.49 360.878 1380.84 382.133 1385.64 402.092Z" fill="#a57f46" fill-rule="evenodd" opacity="1" stroke="none"/>
<path d="M1352.28 375.927C1352.44 375.732 1355.3 377.556 1356.4 379.893C1357.5 382.231 1356.86 385.082 1356.69 385.277C1356.53 385.471 1356.86 383.009 1355.76 380.672C1354.65 378.334 1352.12 376.121 1352.28 375.927Z" fill="#5e5b56" fill-rule="evenodd" opacity="1" stroke="none"/>
<path d="M1365.76 404.367C1365.72 404 1367.5 400.83 1368.94 400.643C1370.39 400.456 1371.51 403.252 1371.54 403.618C1371.58 403.985 1370.54 401.924 1369.1 402.111C1367.65 402.298 1365.8 404.734 1365.76 404.367Z" fill="#5e5b56" fill-rule="evenodd" opacity="1" stroke="none"/>
<path d="M1339.15 417.278C1339.23 417.083 1340.24 416.533 1341.31 416.29C1342.08 416.118 1342.87 416.098 1343.4 416.462C1344.69 417.343 1344.41 420.467 1344.29 420.8C1344.16 421.132 1344.18 418.674 1342.9 417.793C1341.62 416.913 1339.03 417.61 1339.15 417.278Z" fill="#5e5b56" fill-rule="evenodd" opacity="1" stroke="none"/>
<path d="M1378.35 687.021C1393.11 701.741 1394.02 743.68 1380.06 754.084C1363.91 766.123 1339.22 759.231 1327.51 738.461C1322.76 730.027 1326.78 690.711 1339.2 678.105C1347.88 669.303 1352.65 664.009 1362.5 668.503C1372.35 672.997 1367.46 676.162 1378.35 687.021Z" fill="#d5a968" fill-rule="evenodd" opacity="1" stroke="none"/>
<path d="M1369.09 720.775C1369.28 720.55 1372.57 722.652 1373.84 725.345C1375.11 728.039 1374.36 731.324 1374.18 731.548C1373.99 731.772 1374.37 728.935 1373.1 726.242C1371.83 723.549 1368.91 720.999 1369.09 720.775Z" fill="#5e5b56" fill-rule="evenodd" opacity="1" stroke="none"/>
<path d="M1360.26 745.215C1360.22 744.792 1362.26 741.14 1363.93 740.924C1365.6 740.708 1366.88 743.93 1366.93 744.352C1366.97 744.775 1365.77 742.4 1364.11 742.616C1362.44 742.831 1360.31 745.638 1360.26 745.215Z" fill="#5e5b56" fill-rule="evenodd" opacity="1" stroke="none"/>
<path d="M1352.33 687.919C1352.48 687.535 1355.75 685.965 1357.23 686.979C1358.71 687.994 1358.39 691.593 1358.24 691.977C1358.1 692.36 1358.12 689.527 1356.65 688.513C1355.17 687.498 1352.18 688.302 1352.33 687.919Z" fill="#5e5b56" fill-rule="evenodd" opacity="1" stroke="none"/>
</g>
</g>
</svg>
